<?xml version="1.0" encoding="utf-8"?>
<!-- Generator: Adobe Illustrator 16.0.0, SVG Export Plug-In . SVG Version: 6.00 Build 0)  -->
<!DOCTYPE svg PUBLIC "-//W3C//DTD SVG 1.1//EN" "http://www.w3.org/Graphics/SVG/1.1/DTD/svg11.dtd">
<svg version="1.1" id="Capa_1" xmlns="http://www.w3.org/2000/svg" xmlns:xlink="http://www.w3.org/1999/xlink" x="0px" y="0px"
	 width="530px" height="101px" viewBox="0 0 530 101" enable-background="new 0 0 530 101" xml:space="preserve">
<g>
	<path fill-rule="evenodd" clip-rule="evenodd" fill="#FFFFFF" d="M540.875,25.598c4.628,0,8.376,3.748,8.376,8.376
		c0,4.629-3.748,8.377-8.376,8.377s-8.376-3.748-8.376-8.377C532.499,29.345,536.247,25.598,540.875,25.598L540.875,25.598z
		 M540.875,26.617c-4.063,0-7.357,3.295-7.357,7.358s3.295,7.358,7.357,7.358s7.357-3.296,7.357-7.358
		S544.938,26.617,540.875,26.617z"/>
	<path fill="#FFFFFF" d="M538.87,33.593h2.772c0.217,0,0.408-0.05,0.576-0.153s0.298-0.246,0.389-0.435
		c0.09-0.188,0.136-0.402,0.136-0.646l0,0c0-0.244-0.046-0.46-0.136-0.647c-0.091-0.188-0.221-0.333-0.387-0.434
		c-0.164-0.103-0.359-0.153-0.578-0.153h-2.772v-1.061h2.729c0.469,0,0.882,0.095,1.238,0.285c0.355,0.188,0.632,0.457,0.826,0.805
		c0.196,0.347,0.294,0.749,0.294,1.204l0,0c0,0.455-0.099,0.855-0.296,1.204c-0.198,0.347-0.475,0.615-0.83,0.805
		c-0.356,0.188-0.767,0.284-1.232,0.284h-2.729V33.593L538.87,33.593z M538.372,30.065h1.141v7.946h-1.141V30.065L538.372,30.065z
		 M541.083,34.406l1.136-0.25l2.08,3.855h-1.354L541.083,34.406z"/>
</g>
<g>
	<polygon fill="#C6C7C8" points="361.127,50.094 376.002,50.094 367.457,94.223 352.582,94.223 	"/>
	<g>
		<path fill="#C6C7C8" d="M164.358,35.969l-3.483,11.842c-2.038-0.993-4.033-1.742-5.99-2.238c-1.957-0.501-3.9-0.749-5.829-0.749
			c-2.959,0-5.367,0.49-7.227,1.473c-1.858,0.983-2.965,2.339-3.314,4.064c-0.247,1.213-0.035,2.268,0.629,3.174
			c0.666,0.901,1.788,1.651,3.366,2.243c0.528,0.187,1.283,0.456,2.268,0.806c5.844,2.127,9.633,4.004,11.361,5.623
			c1.613,1.562,2.666,3.345,3.16,5.354c0.493,2.009,0.466,4.356-0.082,7.054c-1.283,6.333-4.272,11.163-8.961,14.493
			c-4.689,3.325-10.841,4.99-18.456,4.99c-2.753,0-5.472-0.2-8.155-0.606c-2.683-0.405-5.307-1.011-7.869-1.818l3.836-12.813
			c2.325,1.212,4.64,2.135,6.943,2.768c2.302,0.633,4.533,0.949,6.694,0.949c2.881,0,5.273-0.565,7.177-1.699
			c1.9-1.13,3.049-2.666,3.444-4.605c0.486-2.401-1.75-4.568-6.708-6.509c-1.19-0.458-2.109-0.821-2.748-1.093
			c-4.825-1.966-8.092-4.25-9.801-6.849c-1.711-2.603-2.156-5.924-1.336-9.965c1.17-5.766,4.038-10.2,8.604-13.3
			c4.565-3.098,10.527-4.648,17.885-4.648c2.7,0,5.267,0.167,7.693,0.505C159.885,34.75,162.187,35.271,164.358,35.969z"/>
		<path fill="#C6C7C8" d="M171.374,30.675h13.93l-5.161,25.427c1.88-2.291,4.095-4.037,6.639-5.235
			c2.546-1.2,5.285-1.798,8.219-1.798c4.964,0,8.423,1.597,10.373,4.789c1.95,3.194,2.302,7.86,1.055,14.006l-5.053,24.897h-13.816
			l4.438-21.868c0.678-3.34,0.616-5.825-0.185-7.456c-0.801-1.632-2.359-2.447-4.674-2.447c-2.417,0-4.561,1.024-6.431,3.073
			c-1.867,2.046-3.153,4.797-3.854,8.245l-4.151,20.453h-13.93L171.374,30.675z"/>
		<path fill="#C6C7C8" d="M236.019,49.069c7.332,0,12.663,1.976,15.988,5.94c3.324,3.963,4.272,9.458,2.843,16.494
			c-1.416,6.979-4.589,12.451-9.521,16.41c-4.935,3.962-11.066,5.944-18.398,5.944c-7.307,0-12.618-1.981-15.928-5.944
			c-3.313-3.959-4.261-9.431-2.845-16.41c1.429-7.036,4.601-12.531,9.523-16.494C222.6,51.045,228.712,49.069,236.019,49.069z
			 M233.952,59.254c-2.623,0-4.979,1.109-7.063,3.332c-2.085,2.224-3.5,5.169-4.244,8.833c-0.733,3.613-0.508,6.528,0.676,8.751
			c1.18,2.227,3.085,3.336,5.708,3.336c2.676,0,5.041-1.099,7.094-3.294c2.055-2.196,3.453-5.129,4.196-8.792
			c0.75-3.693,0.544-6.642-0.616-8.854C238.546,60.357,236.629,59.254,233.952,59.254z"/>
		<path fill="#C6C7C8" d="M258.246,50.198h14.703l0.165,26.763c0.005,0.861-0.029,1.784-0.097,2.768
			c-0.072,0.982-0.189,2.067-0.354,3.254c0.429-1.348,0.826-2.547,1.195-3.598c0.367-1.051,0.672-1.859,0.914-2.424l11.759-26.763
			h16.594l0.554,27.328c0,0.889-0.021,1.79-0.067,2.706c-0.043,0.916-0.134,1.833-0.267,2.751c0.535-1.888,0.912-3.188,1.137-3.902
			c0.222-0.713,0.387-1.19,0.484-1.436L316.4,50.198h13.508l-21.023,42.564h-15.899l-0.898-28.294
			c-0.018-0.672,0.024-1.468,0.122-2.383c0.093-0.917,0.253-1.996,0.479-3.234c-0.495,1.563-0.896,2.807-1.202,3.736
			c-0.305,0.93-0.527,1.561-0.67,1.881l-12.688,28.294h-16.053L258.246,50.198z"/>
		<path fill="#C6C7C8" d="M351.254,35.727l-2.939,14.471h9.959l-2.131,10.509h-9.957l-2.98,14.674
			c-0.639,3.156-0.6,5.378,0.111,6.672c0.717,1.294,2.26,1.939,4.627,1.939c0.334,0,0.766-0.046,1.301-0.142
			c0.533-0.094,1.303-0.262,2.305-0.503l-1.701,9.499c-1.559,0.35-3.066,0.619-4.502,0.806c-1.439,0.189-2.83,0.287-4.17,0.287
			c-5.508,0-9.193-1.424-11.074-4.268c-1.883-2.843-2.17-7.472-0.869-13.886l3.063-15.079h-7.836l2.129-10.509h8.607l1.996-9.821
			L351.254,35.727z"/>
		<path fill="#C6C7C8" d="M412.65,51.291l-3.129,10.671c-1.203-0.78-2.438-1.359-3.697-1.737c-1.264-0.377-2.563-0.564-3.9-0.564
			c-3.447,0-6.402,1.063-8.867,3.193c-2.467,2.127-4.066,5.011-4.807,8.649c-0.721,3.554-0.217,6.4,1.51,8.528
			c1.732,2.127,4.41,3.193,8.035,3.193c1.521,0,3.02-0.202,4.504-0.606c1.486-0.404,2.965-1.025,4.449-1.859l-1.963,11.198
			c-1.906,0.646-3.967,1.137-6.184,1.474c-2.219,0.336-4.588,0.508-7.109,0.508c-6.584,0-11.512-2.064-14.779-6.187
			c-3.268-4.122-4.221-9.512-2.871-16.17c1.418-6.979,4.605-12.479,9.559-16.492c4.957-4.017,11.061-6.021,18.318-6.021
			c1.75,0,3.535,0.181,5.346,0.544C408.883,49.978,410.748,50.536,412.65,51.291z"/>
		<path fill="#C6C7C8" d="M420.539,30.675h13.93l-7.49,36.906l14.408-17.383h15.283l-17.463,18.554l10.139,24.01H432.83
			l-6.461-22.192l-4.502,22.192h-13.932L420.539,30.675z"/>
		<path fill="#C6C7C8" d="M491.406,72.228l-0.725,3.558h-28.518c-0.281,2.774,0.43,4.919,2.131,6.428
			c1.699,1.507,4.248,2.263,7.645,2.263c2.033,0,4.242-0.298,6.623-0.889c2.385-0.591,4.895-1.484,7.527-2.668l-2.115,10.43
			c-2.441,0.863-4.934,1.51-7.479,1.941c-2.545,0.428-5.152,0.648-7.828,0.648c-7.41,0-12.783-2.05-16.119-6.147
			c-3.336-4.098-4.264-9.782-2.789-17.059c1.344-6.628,4.34-11.899,8.979-15.806c4.637-3.908,10.223-5.858,16.758-5.858
			c6.588,0,11.26,2.004,14.021,6.021C492.285,59.103,492.908,64.817,491.406,72.228z M480.119,67.177
			c0.299-2.857-0.123-5.099-1.258-6.732c-1.139-1.63-2.838-2.443-5.1-2.443c-2.24,0-4.244,0.813-6.012,2.443
			c-1.773,1.633-3.107,3.875-3.996,6.732H480.119z"/>
		<path fill="#C6C7C8" d="M518.994,35.727l-2.939,14.471h9.955l-2.131,10.509h-9.955l-2.979,14.674
			c-0.639,3.156-0.604,5.378,0.111,6.672c0.717,1.294,2.256,1.939,4.621,1.939c0.336,0,0.77-0.046,1.303-0.142
			c0.539-0.094,1.301-0.262,2.303-0.503l-1.699,9.499c-1.559,0.35-3.064,0.619-4.5,0.806c-1.441,0.189-2.832,0.287-4.17,0.287
			c-5.508,0-9.197-1.424-11.076-4.268c-1.881-2.843-2.172-7.472-0.869-13.886l3.061-15.079h-7.832l2.131-10.509h8.605l1.996-9.821
			L518.994,35.727z"/>
		<path fill="#C6C7C8" d="M373.568,28.006c2.787,0,4.826,0.734,6.115,2.199c1.285,1.465,1.68,3.495,1.176,6.095
			c-0.498,2.58-1.676,4.6-3.529,6.063c-1.857,1.463-4.18,2.199-6.969,2.199c-2.783,0-4.814-0.736-6.096-2.199
			c-1.287-1.463-1.676-3.484-1.178-6.063c0.504-2.601,1.678-4.63,3.531-6.095C368.467,28.741,370.783,28.006,373.568,28.006z"/>
	</g>
</g>
<polygon fill="#FFFFFF" points="360.293,47.844 375.169,47.844 366.624,91.973 351.748,91.973 "/>
<g>
	<path fill="#FFFFFF" d="M163.525,33.719l-3.483,11.842c-2.038-0.993-4.033-1.742-5.99-2.238c-1.957-0.501-3.9-0.749-5.829-0.749
		c-2.959,0-5.367,0.49-7.227,1.473c-1.858,0.983-2.965,2.339-3.314,4.064c-0.247,1.213-0.035,2.268,0.629,3.174
		c0.666,0.901,1.788,1.651,3.366,2.243c0.528,0.187,1.283,0.456,2.268,0.806c5.844,2.127,9.633,4.004,11.361,5.623
		c1.613,1.562,2.666,3.345,3.16,5.354c0.493,2.009,0.466,4.356-0.082,7.054c-1.283,6.333-4.272,11.163-8.961,14.493
		c-4.689,3.325-10.841,4.99-18.456,4.99c-2.753,0-5.472-0.2-8.155-0.606c-2.683-0.405-5.307-1.011-7.869-1.818l3.836-12.813
		c2.325,1.212,4.64,2.135,6.943,2.768c2.302,0.633,4.533,0.949,6.694,0.949c2.881,0,5.273-0.565,7.177-1.699
		c1.9-1.13,3.049-2.666,3.444-4.605c0.486-2.401-1.75-4.568-6.708-6.509c-1.19-0.458-2.109-0.821-2.748-1.093
		c-4.825-1.966-8.092-4.25-9.801-6.849c-1.711-2.603-2.156-5.924-1.336-9.965c1.17-5.766,4.038-10.2,8.604-13.3
		c4.565-3.098,10.527-4.648,17.885-4.648c2.7,0,5.267,0.167,7.693,0.505C159.051,32.5,161.353,33.021,163.525,33.719z"/>
	<path fill="#FFFFFF" d="M170.541,28.425h13.93l-5.161,25.427c1.88-2.291,4.095-4.037,6.639-5.235
		c2.546-1.2,5.285-1.798,8.219-1.798c4.964,0,8.423,1.597,10.373,4.789c1.95,3.194,2.302,7.86,1.055,14.006l-5.053,24.897h-13.816
		l4.438-21.868c0.678-3.34,0.616-5.825-0.185-7.456c-0.801-1.632-2.359-2.447-4.674-2.447c-2.417,0-4.561,1.024-6.431,3.073
		c-1.867,2.046-3.153,4.797-3.854,8.245l-4.151,20.453h-13.93L170.541,28.425z"/>
	<path fill="#FFFFFF" d="M235.186,46.819c7.332,0,12.663,1.976,15.988,5.94c3.324,3.963,4.272,9.458,2.843,16.494
		c-1.416,6.979-4.589,12.451-9.521,16.41c-4.935,3.962-11.066,5.944-18.398,5.944c-7.307,0-12.618-1.981-15.928-5.944
		c-3.313-3.959-4.261-9.431-2.845-16.41c1.429-7.036,4.601-12.531,9.523-16.494C221.766,48.795,227.879,46.819,235.186,46.819z
		 M233.118,57.004c-2.623,0-4.979,1.109-7.063,3.332c-2.085,2.224-3.5,5.169-4.244,8.833c-0.733,3.613-0.508,6.528,0.676,8.751
		c1.18,2.227,3.085,3.336,5.708,3.336c2.676,0,5.041-1.099,7.094-3.294c2.055-2.196,3.453-5.129,4.196-8.792
		c0.75-3.693,0.544-6.642-0.616-8.854C237.713,58.107,235.795,57.004,233.118,57.004z"/>
	<path fill="#FFFFFF" d="M257.412,47.948h14.703l0.165,26.763c0.005,0.861-0.029,1.784-0.097,2.768
		c-0.072,0.982-0.189,2.067-0.354,3.254c0.429-1.348,0.826-2.547,1.196-3.598c0.367-1.051,0.672-1.859,0.914-2.424l11.759-26.763
		h16.594l0.553,27.328c0.001,0.889-0.021,1.79-0.067,2.706c-0.043,0.916-0.134,1.833-0.267,2.751
		c0.535-1.888,0.912-3.188,1.136-3.902c0.222-0.713,0.387-1.19,0.485-1.436l11.434-27.446h13.508l-21.023,42.564h-15.898
		l-0.898-28.294c-0.018-0.672,0.024-1.468,0.122-2.383c0.093-0.917,0.253-1.996,0.479-3.234c-0.496,1.563-0.896,2.807-1.202,3.736
		c-0.305,0.93-0.528,1.561-0.67,1.881l-12.689,28.294h-16.053L257.412,47.948z"/>
	<path fill="#FFFFFF" d="M350.421,33.477l-2.939,14.471h9.959l-2.132,10.509h-9.956l-2.98,14.674
		c-0.639,3.156-0.6,5.378,0.111,6.672c0.717,1.294,2.26,1.939,4.627,1.939c0.333,0,0.766-0.046,1.3-0.142
		c0.534-0.094,1.303-0.262,2.305-0.503l-1.7,9.499c-1.559,0.35-3.066,0.619-4.503,0.806c-1.439,0.189-2.83,0.287-4.17,0.287
		c-5.507,0-9.193-1.424-11.074-4.268c-1.883-2.843-2.17-7.472-0.869-13.886l3.063-15.079h-7.836l2.13-10.509h8.606l1.996-9.821
		L350.421,33.477z"/>
	<path fill="#FFFFFF" d="M411.816,49.041l-3.129,10.671c-1.203-0.78-2.438-1.359-3.696-1.737c-1.265-0.377-2.563-0.564-3.901-0.564
		c-3.447,0-6.402,1.063-8.867,3.193c-2.467,2.127-4.066,5.011-4.806,8.649c-0.722,3.554-0.217,6.4,1.51,8.528
		c1.731,2.127,4.409,3.193,8.035,3.193c1.521,0,3.02-0.202,4.503-0.606c1.486-0.404,2.965-1.025,4.45-1.859l-1.963,11.198
		c-1.906,0.646-3.967,1.137-6.185,1.474c-2.219,0.336-4.587,0.508-7.108,0.508c-6.584,0-11.513-2.064-14.779-6.187
		c-3.268-4.122-4.222-9.512-2.872-16.17c1.419-6.979,4.605-12.479,9.56-16.492c4.957-4.017,11.061-6.021,18.317-6.021
		c1.75,0,3.535,0.181,5.347,0.544C408.05,47.728,409.915,48.286,411.816,49.041z"/>
	<path fill="#FFFFFF" d="M419.705,28.425h13.93l-7.489,36.906l14.408-17.383h15.282l-17.463,18.554l10.139,24.01h-16.516
		l-6.461-22.192l-4.502,22.192h-13.931L419.705,28.425z"/>
	<path fill="#FFFFFF" d="M490.573,69.978l-0.725,3.558H461.33c-0.281,2.774,0.43,4.919,2.131,6.428
		c1.7,1.507,4.248,2.263,7.645,2.263c2.033,0,4.242-0.298,6.623-0.889c2.386-0.591,4.895-1.484,7.527-2.668l-2.115,10.43
		c-2.44,0.863-4.934,1.51-7.478,1.941c-2.545,0.428-5.152,0.648-7.828,0.648c-7.411,0-12.783-2.05-16.12-6.147
		c-3.336-4.098-4.263-9.782-2.788-17.059c1.344-6.628,4.34-11.899,8.978-15.806c4.638-3.908,10.224-5.858,16.759-5.858
		c6.588,0,11.26,2.004,14.021,6.021C491.451,56.853,492.075,62.567,490.573,69.978z M479.285,64.927
		c0.299-2.857-0.122-5.099-1.258-6.732c-1.139-1.63-2.838-2.443-5.1-2.443c-2.24,0-4.244,0.813-6.012,2.443
		c-1.773,1.633-3.107,3.875-3.996,6.732H479.285z"/>
	<path fill="#FFFFFF" d="M518.16,33.477l-2.939,14.471h9.955l-2.131,10.509h-9.954l-2.979,14.674
		c-0.64,3.156-0.604,5.378,0.11,6.672c0.718,1.294,2.256,1.939,4.622,1.939c0.336,0,0.77-0.046,1.303-0.142
		c0.538-0.094,1.301-0.262,2.303-0.503l-1.699,9.499c-1.56,0.35-3.064,0.619-4.5,0.806c-1.442,0.189-2.832,0.287-4.17,0.287
		c-5.508,0-9.197-1.424-11.077-4.268c-1.881-2.843-2.172-7.472-0.869-13.886l3.062-15.079h-7.832l2.13-10.509h8.606l1.995-9.821
		L518.16,33.477z"/>
	<path fill="#FFFFFF" d="M372.735,25.756c2.786,0,4.826,0.734,6.115,2.199c1.285,1.465,1.679,3.495,1.176,6.095
		c-0.499,2.58-1.677,4.6-3.529,6.063c-1.858,1.463-4.181,2.199-6.97,2.199c-2.782,0-4.814-0.736-6.096-2.199
		c-1.287-1.463-1.676-3.484-1.178-6.063c0.505-2.601,1.678-4.63,3.532-6.095C367.633,26.491,369.95,25.756,372.735,25.756z"/>
</g>
<path fill-rule="evenodd" clip-rule="evenodd" fill="#53C0DF" d="M18.133,75.07l0.067-0.388c0.25-0.289,0.503-0.575,0.751-0.87
	C35.324,54.367,39.655,28.845,32.745,6.244l59.021,10.127c-2.378,11.585-7.598,22.762-15.759,32.455
	C61.111,66.513,39.631,75.45,18.133,75.07z"/>
<path fill-rule="evenodd" clip-rule="evenodd" fill="#508EC7" d="M18.358,75.416l0.216-0.332c0.345-0.167,0.69-0.331,1.034-0.504
	C42.345,63.137,56.417,41.38,59,17.894l50.242,32.481c-6.766,9.714-15.982,17.937-27.316,23.641
	C61.244,84.426,37.968,84.206,18.358,75.416z"/>
<path fill-rule="evenodd" clip-rule="evenodd" fill="#344895" d="M6.167,49.247h24.677c-2.851,8.59-7.346,16.794-13.536,24.145
	l-0.267,0.312C11.743,66.579,7.96,58.268,6.167,49.247z"/>
<path fill-rule="evenodd" clip-rule="evenodd" fill="#344895" d="M18.658,75.781l0.285-0.165c0.32,0.005,0.639,0.012,0.96,0.012
	c21.227,0,39.896-10.917,50.672-27.418L95.703,91.18c-8.696,4.692-18.651,7.359-29.231,7.359
	C47.162,98.539,29.931,89.661,18.658,75.781z"/>
</svg>
